<mxfile host="app.diagrams.net" modified="2022-09-18T22:24:13.084Z" agent="5.0 (Windows NT 10.0; Win64; x64) AppleWebKit/537.36 (KHTML, like Gecko) Chrome/104.0.5112.102 Safari/537.36 OPR/90.0.4480.84" etag="eaTuQpdaV0tmdvJn24BQ" version="20.3.2" type="github">
  <diagram id="C5RBs43oDa-KdzZeNtuy" name="Page-1">
    <mxGraphModel dx="1068" dy="1621" grid="1" gridSize="10" guides="1" tooltips="1" connect="1" arrows="1" fold="1" page="1" pageScale="1" pageWidth="827" pageHeight="1169" math="0" shadow="0">
      <root>
        <mxCell id="WIyWlLk6GJQsqaUBKTNV-0" />
        <mxCell id="WIyWlLk6GJQsqaUBKTNV-1" parent="WIyWlLk6GJQsqaUBKTNV-0" />
        <mxCell id="Uzg1npWYRRvvijQt8biz-23" style="edgeStyle=orthogonalEdgeStyle;rounded=0;orthogonalLoop=1;jettySize=auto;html=1;exitX=0.5;exitY=1;exitDx=0;exitDy=0;entryX=0.5;entryY=0;entryDx=0;entryDy=0;fontSize=12;" edge="1" parent="WIyWlLk6GJQsqaUBKTNV-1" source="Uzg1npWYRRvvijQt8biz-0" target="Uzg1npWYRRvvijQt8biz-1">
          <mxGeometry relative="1" as="geometry" />
        </mxCell>
        <mxCell id="Uzg1npWYRRvvijQt8biz-0" value="Start" style="ellipse;whiteSpace=wrap;html=1;" vertex="1" parent="WIyWlLk6GJQsqaUBKTNV-1">
          <mxGeometry x="354" y="-30" width="120" height="80" as="geometry" />
        </mxCell>
        <mxCell id="Uzg1npWYRRvvijQt8biz-22" style="edgeStyle=orthogonalEdgeStyle;rounded=0;orthogonalLoop=1;jettySize=auto;html=1;exitX=0.5;exitY=1;exitDx=0;exitDy=0;entryX=0.5;entryY=0;entryDx=0;entryDy=0;fontSize=12;" edge="1" parent="WIyWlLk6GJQsqaUBKTNV-1" source="Uzg1npWYRRvvijQt8biz-1" target="Uzg1npWYRRvvijQt8biz-2">
          <mxGeometry relative="1" as="geometry" />
        </mxCell>
        <mxCell id="Uzg1npWYRRvvijQt8biz-1" value="&lt;div&gt;#include &quot;main.h&quot;&lt;/div&gt;&lt;div&gt;#define GPIOC_CLOCK (1&amp;lt;&amp;lt;2)&lt;/div&gt;&lt;div&gt;ADC_HandleTypeDef hadc1;&lt;/div&gt;&lt;div&gt;&lt;br&gt;&lt;/div&gt;&lt;div&gt;int D1 = 0x00; // Y7&lt;/div&gt;&lt;div&gt;int D2 = 0x10; // Y6&lt;/div&gt;&lt;div&gt;int D3 = 0x20; // Y5&lt;/div&gt;&lt;div&gt;int D4 = 0x30; // Y4&lt;/div&gt;&lt;div&gt;int D5 = 0x40; // Y3&lt;/div&gt;&lt;div&gt;int D6 = 0x50; // Y2&lt;/div&gt;&lt;div&gt;int D7 = 0x60; // Y1&lt;/div&gt;&lt;div&gt;int D8 = 0x70; // Y0&lt;/div&gt;&lt;div&gt;&lt;br&gt;&lt;/div&gt;&lt;div&gt;int numeros[10] = {0x0,0x1,0x2,0x3,0x4,0x5,0x6,0x7,0x8,0x9};&lt;/div&gt;&lt;div&gt;&lt;br&gt;&lt;/div&gt;&lt;div&gt;int V;&lt;/div&gt;&lt;div&gt;int Ans;&lt;/div&gt;&lt;div&gt;float mV;&lt;/div&gt;&lt;div&gt;&lt;br&gt;&lt;/div&gt;&lt;div&gt;uint16_1 adcValue;&lt;/div&gt;&lt;div&gt;uint16_1 counter;&lt;/div&gt;&lt;div&gt;&lt;br&gt;&lt;/div&gt;&lt;div&gt;void SysInit(void);&lt;/div&gt;&lt;div&gt;void displayNumber(int valor);&lt;/div&gt;&lt;div&gt;void setDisplay(int dig1, int dig2, int dig3, int dig4, int dig5, int dig6, int dig7, int dig8);&lt;/div&gt;&lt;div&gt;void SystemClock_Config(void);&lt;/div&gt;&lt;div&gt;static void MX_GPIO_Init(void);&lt;/div&gt;&lt;div&gt;static void MX_ADC1_Init(void);&lt;/div&gt;" style="whiteSpace=wrap;html=1;aspect=fixed;" vertex="1" parent="WIyWlLk6GJQsqaUBKTNV-1">
          <mxGeometry x="189" y="70" width="450" height="450" as="geometry" />
        </mxCell>
        <mxCell id="Uzg1npWYRRvvijQt8biz-21" style="edgeStyle=orthogonalEdgeStyle;rounded=0;orthogonalLoop=1;jettySize=auto;html=1;exitX=0.5;exitY=1;exitDx=0;exitDy=0;entryX=0.5;entryY=0;entryDx=0;entryDy=0;fontSize=12;" edge="1" parent="WIyWlLk6GJQsqaUBKTNV-1" source="Uzg1npWYRRvvijQt8biz-2" target="Uzg1npWYRRvvijQt8biz-3">
          <mxGeometry relative="1" as="geometry" />
        </mxCell>
        <mxCell id="Uzg1npWYRRvvijQt8biz-2" value="&lt;font size=&quot;3&quot;&gt;While(1)&lt;/font&gt;" style="rhombus;whiteSpace=wrap;html=1;fontSize=6;" vertex="1" parent="WIyWlLk6GJQsqaUBKTNV-1">
          <mxGeometry x="374" y="570" width="80" height="80" as="geometry" />
        </mxCell>
        <mxCell id="Uzg1npWYRRvvijQt8biz-17" style="edgeStyle=orthogonalEdgeStyle;rounded=0;orthogonalLoop=1;jettySize=auto;html=1;exitX=1;exitY=0.5;exitDx=0;exitDy=0;entryX=0.5;entryY=0;entryDx=0;entryDy=0;fontSize=12;" edge="1" parent="WIyWlLk6GJQsqaUBKTNV-1" source="Uzg1npWYRRvvijQt8biz-3" target="Uzg1npWYRRvvijQt8biz-16">
          <mxGeometry relative="1" as="geometry" />
        </mxCell>
        <mxCell id="Uzg1npWYRRvvijQt8biz-20" style="edgeStyle=orthogonalEdgeStyle;rounded=0;orthogonalLoop=1;jettySize=auto;html=1;exitX=0.5;exitY=1;exitDx=0;exitDy=0;entryX=0.5;entryY=0;entryDx=0;entryDy=0;fontSize=12;" edge="1" parent="WIyWlLk6GJQsqaUBKTNV-1" source="Uzg1npWYRRvvijQt8biz-3" target="Uzg1npWYRRvvijQt8biz-6">
          <mxGeometry relative="1" as="geometry" />
        </mxCell>
        <mxCell id="Uzg1npWYRRvvijQt8biz-3" value="if(HAL_ADC_PollForConversion(&amp;hadc1, 5) == HAL_OK)" style="rhombus;whiteSpace=wrap;html=1;fontSize=12;" vertex="1" parent="WIyWlLk6GJQsqaUBKTNV-1">
          <mxGeometry x="229" y="670" width="370" height="90" as="geometry" />
        </mxCell>
        <mxCell id="Uzg1npWYRRvvijQt8biz-14" style="edgeStyle=orthogonalEdgeStyle;rounded=0;orthogonalLoop=1;jettySize=auto;html=1;exitX=1;exitY=0.5;exitDx=0;exitDy=0;fontSize=12;entryX=1;entryY=0.5;entryDx=0;entryDy=0;" edge="1" parent="WIyWlLk6GJQsqaUBKTNV-1" source="Uzg1npWYRRvvijQt8biz-5" target="Uzg1npWYRRvvijQt8biz-8">
          <mxGeometry relative="1" as="geometry">
            <mxPoint x="530" y="1170" as="targetPoint" />
            <Array as="points">
              <mxPoint x="550" y="920" />
              <mxPoint x="550" y="1160" />
            </Array>
          </mxGeometry>
        </mxCell>
        <mxCell id="Uzg1npWYRRvvijQt8biz-15" style="edgeStyle=orthogonalEdgeStyle;rounded=0;orthogonalLoop=1;jettySize=auto;html=1;exitX=0.5;exitY=1;exitDx=0;exitDy=0;entryX=0.5;entryY=0;entryDx=0;entryDy=0;fontSize=12;" edge="1" parent="WIyWlLk6GJQsqaUBKTNV-1" source="Uzg1npWYRRvvijQt8biz-5" target="Uzg1npWYRRvvijQt8biz-7">
          <mxGeometry relative="1" as="geometry" />
        </mxCell>
        <mxCell id="Uzg1npWYRRvvijQt8biz-5" value="for(int i = 0 ; i &amp;lt; 30 ; i++)" style="shape=hexagon;perimeter=hexagonPerimeter2;whiteSpace=wrap;html=1;fixedSize=1;fontSize=12;" vertex="1" parent="WIyWlLk6GJQsqaUBKTNV-1">
          <mxGeometry x="321" y="890" width="186" height="60" as="geometry" />
        </mxCell>
        <mxCell id="Uzg1npWYRRvvijQt8biz-19" style="edgeStyle=orthogonalEdgeStyle;rounded=0;orthogonalLoop=1;jettySize=auto;html=1;exitX=0.5;exitY=1;exitDx=0;exitDy=0;entryX=0.5;entryY=0;entryDx=0;entryDy=0;fontSize=12;" edge="1" parent="WIyWlLk6GJQsqaUBKTNV-1" source="Uzg1npWYRRvvijQt8biz-6" target="Uzg1npWYRRvvijQt8biz-5">
          <mxGeometry relative="1" as="geometry" />
        </mxCell>
        <mxCell id="Uzg1npWYRRvvijQt8biz-6" value="adcValue = HAL_ADC_GetValue(&amp;amp;hadc1);" style="rounded=0;whiteSpace=wrap;html=1;fontSize=12;" vertex="1" parent="WIyWlLk6GJQsqaUBKTNV-1">
          <mxGeometry x="311" y="800" width="206" height="70" as="geometry" />
        </mxCell>
        <mxCell id="Uzg1npWYRRvvijQt8biz-12" style="edgeStyle=orthogonalEdgeStyle;rounded=0;orthogonalLoop=1;jettySize=auto;html=1;exitX=0;exitY=0.5;exitDx=0;exitDy=0;fontSize=12;" edge="1" parent="WIyWlLk6GJQsqaUBKTNV-1" source="Uzg1npWYRRvvijQt8biz-7">
          <mxGeometry relative="1" as="geometry">
            <mxPoint x="320" y="920" as="targetPoint" />
            <Array as="points">
              <mxPoint x="250" y="1040" />
              <mxPoint x="250" y="920" />
            </Array>
          </mxGeometry>
        </mxCell>
        <mxCell id="Uzg1npWYRRvvijQt8biz-7" value="&lt;div&gt;mV = (adcValue);&lt;/div&gt;&lt;div&gt;&amp;nbsp; &amp;nbsp; &lt;span style=&quot;&quot;&gt;		&lt;/span&gt;V = ((mV / 4095)*3300);&lt;/div&gt;&lt;div&gt;&amp;nbsp; &amp;nbsp; &lt;span style=&quot;&quot;&gt;		&lt;/span&gt;int(counter) = (V*10000) + adcValue;&lt;/div&gt;&lt;div&gt;&amp;nbsp; &amp;nbsp; &lt;span style=&quot;&quot;&gt;		&lt;/span&gt;DisplayNumber(counter);&lt;/div&gt;" style="rounded=0;whiteSpace=wrap;html=1;fontSize=12;" vertex="1" parent="WIyWlLk6GJQsqaUBKTNV-1">
          <mxGeometry x="330" y="980" width="167" height="120" as="geometry" />
        </mxCell>
        <mxCell id="Uzg1npWYRRvvijQt8biz-8" value="End" style="ellipse;whiteSpace=wrap;html=1;fontSize=12;" vertex="1" parent="WIyWlLk6GJQsqaUBKTNV-1">
          <mxGeometry x="366" y="1130" width="96" height="60" as="geometry" />
        </mxCell>
        <mxCell id="Uzg1npWYRRvvijQt8biz-18" style="edgeStyle=orthogonalEdgeStyle;rounded=0;orthogonalLoop=1;jettySize=auto;html=1;exitX=0.5;exitY=1;exitDx=0;exitDy=0;fontSize=12;" edge="1" parent="WIyWlLk6GJQsqaUBKTNV-1" source="Uzg1npWYRRvvijQt8biz-16">
          <mxGeometry relative="1" as="geometry">
            <mxPoint x="560" y="1160" as="targetPoint" />
            <Array as="points">
              <mxPoint x="655" y="990" />
              <mxPoint x="655" y="990" />
            </Array>
          </mxGeometry>
        </mxCell>
        <mxCell id="Uzg1npWYRRvvijQt8biz-16" value="HAL_ADC_Stop(&amp;amp;hadc1);" style="rounded=0;whiteSpace=wrap;html=1;fontSize=12;" vertex="1" parent="WIyWlLk6GJQsqaUBKTNV-1">
          <mxGeometry x="580" y="760" width="150" height="50" as="geometry" />
        </mxCell>
      </root>
    </mxGraphModel>
  </diagram>
</mxfile>
